<svg width="539" height="406" viewBox="0 0 539 406" fill="none" xmlns="http://www.w3.org/2000/svg">
<g filter="url(#filter0_d_743_306)">
<path d="M269.288 361.855C415.803 361.855 534.577 291.992 534.577 205.811C534.577 119.63 415.803 49.7671 269.288 49.7671C122.774 49.7671 4 119.63 4 205.811C4 291.992 122.774 361.855 269.288 361.855Z" fill="#ABD94E"/>
<path d="M398.089 185.311C449.782 185.311 491.688 143.828 491.688 92.6554C491.688 41.4832 449.782 0 398.089 0C346.395 0 304.489 41.4832 304.489 92.6554C304.489 143.828 346.395 185.311 398.089 185.311Z" fill="#ABD94E"/>
<path d="M398.089 170.745C441.217 170.745 476.179 135.783 476.179 92.6552C476.179 49.5275 441.217 14.5657 398.089 14.5657C354.961 14.5657 320 49.5275 320 92.6552C320 135.783 354.961 170.745 398.089 170.745Z" fill="white"/>
<path d="M392.29 156.853C422.457 156.853 446.912 132.398 446.912 102.231C446.912 72.0643 422.457 47.6091 392.29 47.6091C362.123 47.6091 337.667 72.0643 337.667 102.231C337.667 132.398 362.123 156.853 392.29 156.853Z" fill="#4EAFD9"/>
<path d="M392.155 128.261C403.551 128.261 412.79 119.264 412.79 108.165C412.79 97.0669 403.551 88.0698 392.155 88.0698C380.758 88.0698 371.52 97.0669 371.52 108.165C371.52 119.264 380.758 128.261 392.155 128.261Z" fill="black"/>
<path d="M429.244 81.4612C440.64 81.4612 449.879 72.4641 449.879 61.3656C449.879 50.2671 440.64 41.27 429.244 41.27C417.847 41.27 408.609 50.2671 408.609 61.3656C408.609 72.4641 417.847 81.4612 429.244 81.4612Z" fill="white"/>
<path d="M132.126 187.334C183.82 187.334 225.726 145.851 225.726 94.6786C225.726 43.5064 183.82 2.02319 132.126 2.02319C80.4327 2.02319 38.5268 43.5064 38.5268 94.6786C38.5268 145.851 80.4327 187.334 132.126 187.334Z" fill="#ABD94E"/>
<path d="M132.126 172.768C175.254 172.768 210.216 137.806 210.216 94.6783C210.216 51.5507 175.254 16.5889 132.126 16.5889C88.9985 16.5889 54.0366 51.5507 54.0366 94.6783C54.0366 137.806 88.9985 172.768 132.126 172.768Z" fill="white"/>
<path d="M126.327 159.011C156.494 159.011 180.949 134.556 180.949 104.389C180.949 74.2223 156.494 49.7671 126.327 49.7671C96.1595 49.7671 71.7043 74.2223 71.7043 104.389C71.7043 134.556 96.1595 159.011 126.327 159.011Z" fill="#4EAFD9"/>
<path d="M138.33 130.419C149.727 130.419 158.965 121.422 158.965 110.323C158.965 99.2249 149.727 90.2278 138.33 90.2278C126.934 90.2278 117.695 99.2249 117.695 110.323C117.695 121.422 126.934 130.419 138.33 130.419Z" fill="black"/>
<path d="M163.416 83.6191C174.813 83.6191 184.051 74.622 184.051 63.5235C184.051 52.4251 174.813 43.428 163.416 43.428C152.02 43.428 142.781 52.4251 142.781 63.5235C142.781 74.622 152.02 83.6191 163.416 83.6191Z" fill="white"/>
<path d="M534.577 210.801C534.577 314.246 415.757 398 269.288 398C122.82 398 4 314.112 4 210.801C4 107.491 122.82 266.907 269.288 266.907C415.757 266.907 534.577 107.356 534.577 210.801Z" fill="#88B924"/>
</g>
<defs>
<filter id="filter0_d_743_306" x="0" y="0" width="538.577" height="406" filterUnits="userSpaceOnUse" color-interpolation-filters="sRGB">
<feFlood flood-opacity="0" result="BackgroundImageFix"/>
<feColorMatrix in="SourceAlpha" type="matrix" values="0 0 0 0 0 0 0 0 0 0 0 0 0 0 0 0 0 0 127 0" result="hardAlpha"/>
<feOffset dy="4"/>
<feGaussianBlur stdDeviation="2"/>
<feComposite in2="hardAlpha" operator="out"/>
<feColorMatrix type="matrix" values="0 0 0 0 0 0 0 0 0 0 0 0 0 0 0 0 0 0 0.25 0"/>
<feBlend mode="normal" in2="BackgroundImageFix" result="effect1_dropShadow_743_306"/>
<feBlend mode="normal" in="SourceGraphic" in2="effect1_dropShadow_743_306" result="shape"/>
</filter>
</defs>
</svg>
